<svg width="233" height="234" viewBox="0 0 233 234" fill="none" xmlns="http://www.w3.org/2000/svg">
<g id="Group 1938">
<path id="Ellipse 134" d="M144.234 59.423C146.902 53.8247 144.538 47.0338 138.604 45.2329C124.61 40.9859 109.59 40.9079 95.422 45.1438C77.6457 50.4584 62.4765 62.1852 52.8561 78.05C43.2357 93.9147 39.8498 112.787 43.3549 131.007C46.8601 149.226 57.0065 165.495 71.8265 176.658C86.6465 187.821 105.084 193.082 123.563 191.422C142.043 189.762 159.247 181.298 171.84 167.672C184.433 154.046 191.517 136.229 191.718 117.677C191.878 102.89 187.657 88.4753 179.713 76.1973C176.344 70.9908 169.164 70.5931 164.519 74.7023C159.875 78.8115 159.569 85.8703 162.596 91.2825C167.032 99.2122 169.362 108.219 169.262 117.433C169.121 130.42 164.162 142.892 155.347 152.43C146.532 161.968 134.489 167.893 121.554 169.055C108.618 170.217 95.7119 166.534 85.3379 158.72C74.9639 150.906 67.8614 139.518 65.4078 126.764C62.9542 114.01 65.3244 100.8 72.0587 89.6944C78.7929 78.589 89.4114 70.3803 101.855 66.66C110.683 64.0206 119.983 63.774 128.829 65.8484C134.867 67.2643 141.567 65.0214 144.234 59.423Z" fill="#54656F"/>
<circle id="Ellipse 135" cx="186" cy="38" r="19" fill="#24D366"/>
<path id="Subtract" fill-rule="evenodd" clip-rule="evenodd" d="M198.988 56.4606C194.838 60.64 194.356 67.153 197.187 72.3178C204.456 85.5813 208.59 100.808 208.59 117C208.59 149.933 191.491 178.871 165.687 195.423C160.9 198.494 158.196 204.14 159.527 209.669C161.316 217.107 169.448 221.123 175.992 217.161C209.855 196.662 232.487 159.474 232.487 117C232.487 95.5549 226.718 75.4574 216.646 58.1751C212.917 51.7765 204.206 51.2054 198.988 56.4606ZM116.53 233.995C123.764 233.932 128.58 226.942 126.888 219.909L126.521 218.383C125.32 213.389 120.624 210.102 115.487 210.102C70.6457 210.102 33.2083 178.401 24.3644 136.187C23.169 130.481 18.6543 125.871 12.851 125.319C5.40833 124.61 -0.955637 130.736 0.383418 138.092C10.3144 192.642 58.071 234 115.487 234C115.835 234 116.183 233.998 116.53 233.995ZM115.487 23.8978C75.589 23.8978 41.5524 48.995 28.3033 84.2637C26.1941 89.8783 20.7834 93.7942 14.8127 93.226C7.56324 92.5361 2.50319 85.6316 4.88298 78.7492C20.7312 32.9158 64.2653 0 115.487 0C131.875 0 147.475 3.36907 161.634 9.45236C168.996 12.6155 170.19 22.1181 164.544 27.8042C160.745 31.6298 154.932 32.4689 149.924 30.4739C139.272 26.2308 127.652 23.8978 115.487 23.8978Z" fill="#54656F"/>
</g>
</svg>
