<svg width="30" height="30" viewBox="0 0 30 30" fill="none" xmlns="http://www.w3.org/2000/svg">
<g id="compose 1">
<path id="Vector" d="M27.5433 3.9719C27.9617 3.55347 27.9617 2.87509 27.5433 2.45666C27.1249 2.03825 26.4465 2.03825 26.0281 2.45666L12.0995 16.3852L11.7857 18.2143L13.6147 17.9005L27.5433 3.9719Z" fill="#54656F"/>
<path id="Vector_2" d="M6.96429 3.21428C4.89322 3.21428 3.21429 4.89321 3.21429 6.96428V23.0357C3.21429 25.1068 4.89322 26.7857 6.96429 26.7857H23.0357C25.1068 26.7857 26.7857 25.1068 26.7857 23.0357V12.3214C26.7857 11.7297 26.306 11.25 25.7143 11.25C25.1225 11.25 24.6429 11.7297 24.6429 12.3214V23.0357C24.6429 23.9233 23.9233 24.6428 23.0357 24.6428H6.96429C6.07669 24.6428 5.35715 23.9233 5.35715 23.0357V6.96428C5.35715 6.07668 6.07669 5.35714 6.96429 5.35714H17.6786C18.2703 5.35714 18.75 4.87744 18.75 4.28571C18.75 3.69398 18.2703 3.21428 17.6786 3.21428H6.96429Z" fill="#54656F"/>
</g>
</svg>
