<svg width="24" height="24" viewBox="0 0 24 24" fill="none" xmlns="http://www.w3.org/2000/svg">
<g id="Group 1940">
<path id="Subtract" fill-rule="evenodd" clip-rule="evenodd" d="M24 12C24 18.6274 18.6274 24 12 24C10.2678 24 8.62138 23.633 7.13417 22.9725C6.40218 22.6474 5.51251 22.8825 4.73801 23.0865C3.15657 23.5032 1.70753 22.0714 2.10525 20.4851C2.26142 19.8622 2.33311 19.1401 1.97924 18.6043C0.728245 16.7099 0 14.44 0 12C0 5.37258 5.37258 0 12 0C18.6274 0 24 5.37258 24 12ZM6.5325 20.2515C6.83648 20.1878 7.15168 20.2459 7.42426 20.3948C8.78327 21.1371 10.3424 21.559 12 21.559C17.2793 21.559 21.559 17.2793 21.559 12C21.559 6.7207 17.2793 2.44099 12 2.44099C6.7207 2.44099 2.44099 6.7207 2.44099 12C2.44099 14.388 3.31662 16.5714 4.76431 18.2468C4.98638 18.5038 5.07097 18.8563 4.96513 19.179C4.74581 19.8477 5.33266 20.5031 6.02145 20.3587L6.5325 20.2515Z" fill="#54656F"/>
<path id="Subtract_2" fill-rule="evenodd" clip-rule="evenodd" d="M10.0466 6.43884C10.0466 5.78481 9.41953 5.3115 8.83228 5.5994C6.49372 6.74591 4.88367 9.15002 4.88367 11.9302C4.88367 14.7103 6.49372 17.1145 8.83228 18.261C9.41953 18.5489 10.0466 18.0755 10.0466 17.4215C10.0466 17.0142 9.79217 16.6563 9.43556 16.4594C7.84062 15.5791 6.76032 13.8808 6.76032 11.9302C6.76032 9.97956 7.84062 8.28125 9.43556 7.40092C9.79217 7.20409 10.0466 6.84616 10.0466 6.43884ZM13.6745 17.4918C13.6745 17.0759 13.9405 16.7128 14.3096 16.5211C15.9675 15.6601 17.1 13.9274 17.1 11.9302C17.1 9.93294 15.9675 8.20023 14.3096 7.33921C13.9405 7.14753 13.6745 6.78449 13.6745 6.36857C13.6745 5.72595 14.2838 5.25513 14.8678 5.52334C17.2928 6.63704 18.9767 9.08696 18.9767 11.9302C18.9767 14.7734 17.2928 17.2233 14.8678 18.337C14.2838 18.6052 13.6745 18.1344 13.6745 17.4918Z" fill="#54656F"/>
<circle id="Ellipse 139" cx="11.9302" cy="11.9302" r="1.88372" fill="#54656F"/>
</g>
</svg>
