<svg width="172" height="172" viewBox="0 0 172 172" fill="none" xmlns="http://www.w3.org/2000/svg">
<g id="Group 1941">
<path id="Subtract" fill-rule="evenodd" clip-rule="evenodd" d="M172 86C172 133.496 133.496 172 86 172C72.3153 172 59.3772 168.804 47.8914 163.117C46.7734 162.563 45.4946 162.413 44.2882 162.731L20.2024 169.077C15.0526 170.434 10.3339 165.772 11.629 160.606L16.7643 140.124C17.1323 138.656 16.8087 137.106 15.9301 135.874C5.9001 121.807 0 104.593 0 86C0 38.5035 38.5035 0 86 0C133.496 0 172 38.5035 172 86ZM48.2617 144.833C49.512 144.57 50.811 144.804 51.9186 145.44C61.9561 151.208 73.5928 154.506 86 154.506C123.835 154.506 154.506 123.835 154.506 86C154.506 48.165 123.835 17.4938 86 17.4938C48.165 17.4938 17.4938 48.165 17.4938 86C17.4938 103.451 24.0187 119.378 34.7619 131.474C35.9954 132.863 36.4543 134.793 35.8754 136.558L34.7454 140.004C33.5459 143.661 36.7555 147.245 40.5225 146.455L48.2617 144.833Z" fill="#54656F"/>
<path id="Subtract_2" fill-rule="evenodd" clip-rule="evenodd" d="M72 46.1458C72 41.4586 67.506 38.0665 63.2974 40.1299C46.5383 48.3467 35 65.5759 35 85.5C35 105.424 46.5383 122.653 63.2974 130.87C67.506 132.934 72 129.541 72 124.854C72 121.935 70.1768 119.37 67.6212 117.959C56.1912 111.65 48.4493 99.4792 48.4493 85.5C48.4493 71.5208 56.1912 59.3498 67.6212 53.0407C70.1768 51.63 72 49.0649 72 46.1458ZM98 125.359C98 122.378 99.9064 119.776 102.552 118.402C114.434 112.232 122.551 99.8138 122.551 85.5C122.551 71.1862 114.434 58.7682 102.552 52.5977C99.9064 51.224 98 48.6222 98 45.6414C98 41.036 102.367 37.6618 106.552 39.5839C123.931 47.5652 136 65.1232 136 85.5C136 105.877 123.931 123.435 106.552 131.416C102.367 133.338 98 129.964 98 125.359Z" fill="#54656F"/>
<circle id="Ellipse 139" cx="85.5" cy="85.5" r="13.5" fill="#54656F"/>
</g>
</svg>
