<svg width="23" height="13" viewBox="0 0 23 13" fill="none" xmlns="http://www.w3.org/2000/svg">
<g id="group 1" clip-path="url(#clip0_8_375)">
<g id="Group">
<g id="Group_2">
<path id="Vector" d="M11.5098 6.62519C13.3712 6.62519 14.8915 5.1326 14.8915 3.29334C14.8915 1.45408 13.3809 -0.0385132 11.5098 -0.0385132C9.64831 -0.0385132 8.13772 1.44445 8.13772 3.29334C8.13772 5.14223 9.64831 6.62519 11.5098 6.62519ZM14.5017 7.14519H14.2288C14.1314 7.14519 13.9949 7.18371 13.9072 7.22223C13.9072 7.22223 13.6928 7.34741 13.4979 7.42445C12.9131 7.67482 12.2407 7.81926 11.5292 7.81926C10.8178 7.81926 10.1551 7.67482 9.5606 7.43408C9.36568 7.34741 9.14153 7.22223 9.14153 7.22223C9.06356 7.17408 8.91738 7.14519 8.81992 7.14519H8.55679C7.47501 7.28 6.3445 8.22371 6.02289 9.25408C6.02289 9.25408 5.68179 9.94741 5.63306 11.2956C5.63306 11.4689 5.7695 11.7 5.95467 11.7963C5.95467 11.7963 7.78687 12.9615 11.5195 12.9615C15.2521 12.9615 17.0843 11.7963 17.0843 11.7963C17.2695 11.7 17.4157 11.4496 17.4059 11.2956C17.3572 9.94741 17.0259 9.28297 17.0259 9.28297C16.7237 8.2526 15.5737 7.29926 14.5017 7.14519Z" fill="#54656F"/>
<path id="Vector_2" d="M14.5797 6.34593C14.9403 6.06667 15.3691 5.86445 15.7784 5.80667H15.9636C16.0611 5.80667 16.2073 5.84519 16.2852 5.88371C16.2852 5.88371 16.4412 5.97038 16.5971 6.03778C17.0746 6.24001 17.6204 6.35556 18.1954 6.35556C18.7704 6.35556 19.3259 6.24001 19.8034 6.03778C19.9594 5.97038 20.1153 5.88371 20.1153 5.88371C20.1933 5.83556 20.3395 5.80667 20.4369 5.80667H20.6318C21.5089 5.93186 22.4445 6.70223 22.6882 7.54964C22.6882 7.54964 22.9611 8.08889 23.0001 9.18667C23.0001 9.28297 22.8539 9.52371 22.6784 9.62001C22.6784 9.62001 21.2458 10.5348 18.2051 10.5348C18.1564 10.5348 18.1077 10.5348 18.0589 10.5348C18.0687 10.4096 18.0784 10.2941 18.0784 10.1689C18.0687 8.17556 16.5386 6.54815 14.5797 6.34593ZM18.1954 5.38297C19.7157 5.38297 20.9437 4.16964 20.9437 2.66741C20.9437 1.16519 19.7157 -0.0481415 18.1954 -0.0481415C16.6751 -0.0481415 15.4471 1.16519 15.4471 2.66741C15.4471 4.16964 16.6751 5.38297 18.1954 5.38297Z" fill="#54656F"/>
<path id="Vector_3" d="M8.42034 6.34593C8.05975 6.06667 7.63093 5.86445 7.22161 5.80667H7.03644C6.93898 5.80667 6.7928 5.84519 6.71483 5.88371C6.71483 5.88371 6.5589 5.97038 6.40297 6.03778C5.92542 6.24001 5.37966 6.35556 4.80466 6.35556C4.22966 6.35556 3.67415 6.24001 3.19661 6.03778C3.04068 5.97038 2.88475 5.88371 2.88475 5.88371C2.80678 5.83556 2.66059 5.80667 2.56314 5.80667H2.36822C1.4911 5.93186 0.555508 6.70223 0.311864 7.54964C0.311864 7.54964 0.0389831 8.08889 0 9.18667C0 9.28297 0.146186 9.52371 0.32161 9.62001C0.32161 9.62001 1.75424 10.5348 4.79492 10.5348C4.84364 10.5348 4.89237 10.5348 4.9411 10.5348C4.93136 10.4096 4.92161 10.2941 4.92161 10.1689C4.93136 8.17556 6.46144 6.54815 8.42034 6.34593ZM4.80466 5.38297C3.28432 5.38297 2.05636 4.16964 2.05636 2.66741C2.05636 1.16519 3.28432 -0.0481415 4.80466 -0.0481415C6.325 -0.0481415 7.55297 1.16519 7.55297 2.66741C7.55297 4.16964 6.325 5.38297 4.80466 5.38297Z" fill="#54656F"/>
</g>
</g>
</g>
<defs>
<clipPath id="clip0_8_375">
<rect width="23" height="13" fill="white"/>
</clipPath>
</defs>
</svg>
