<svg width="24" height="25" viewBox="0 0 24 25" fill="none" xmlns="http://www.w3.org/2000/svg">
<g id="Group 1939">
<path id="Ellipse 134" d="M14.8815 6.13972C15.1571 5.56129 14.9129 4.85964 14.2997 4.67356C12.8538 4.23476 11.302 4.2267 9.83811 4.66436C8.00142 5.21348 6.4341 6.42511 5.44011 8.0643C4.44611 9.70348 4.09627 11.6534 4.45842 13.5359C4.82058 15.4184 5.86893 17.0993 7.40017 18.2527C8.9314 19.4061 10.8364 19.9497 12.7457 19.7781C14.655 19.6066 16.4326 18.7321 17.7338 17.3242C19.0349 15.9164 19.7668 14.0755 19.7876 12.1586C19.8042 10.6308 19.3681 9.14146 18.5472 7.87288C18.1991 7.33493 17.4573 7.29383 16.9774 7.71841C16.4975 8.14298 16.4659 8.87231 16.7787 9.43151C17.237 10.2508 17.4777 11.1815 17.4674 12.1334C17.4528 13.4753 16.9405 14.7639 16.0297 15.7494C15.1189 16.7349 13.8746 17.347 12.5381 17.4671C11.2016 17.5872 9.86806 17.2066 8.7962 16.3993C7.72433 15.5919 6.99049 14.4153 6.73698 13.0975C6.48347 11.7798 6.72836 10.4148 7.42415 9.26742C8.11995 8.11999 9.21707 7.27185 10.5028 6.88746C11.4149 6.61476 12.3758 6.58927 13.2898 6.80361C13.9136 6.9499 14.6059 6.71816 14.8815 6.13972Z" fill="#54656F"/>
<circle id="Ellipse 135" cx="19.1968" cy="3.92623" r="1.96312" fill="#24D366"/>
<path id="Subtract" fill-rule="evenodd" clip-rule="evenodd" d="M20.5388 5.83362C20.11 6.26544 20.0602 6.93838 20.3527 7.47202C21.1037 8.84244 21.5308 10.4157 21.5308 12.0887C21.5308 15.4914 19.7641 18.4814 17.098 20.1915C16.6034 20.5088 16.3241 21.0922 16.4615 21.6635C16.6464 22.432 17.4866 22.8469 18.1628 22.4376C21.6616 20.3195 24 16.4772 24 12.0887C24 9.87294 23.4039 7.79642 22.3632 6.01076C21.978 5.34965 21.0779 5.29064 20.5388 5.83362ZM12.0191 24.1769C12.7664 24.1704 13.2641 23.4481 13.0893 22.7214L13.0513 22.5638C12.9272 22.0479 12.442 21.7082 11.9113 21.7082C7.27817 21.7082 3.41005 18.4328 2.49628 14.0711C2.37277 13.4816 1.9063 13.0052 1.30669 12.9482C0.537701 12.875 -0.119838 13.5079 0.0185144 14.2679C1.0446 19.9042 5.97892 24.1774 11.9113 24.1774C11.9473 24.1774 11.9832 24.1772 12.0191 24.1769ZM11.9113 2.46917C7.78893 2.46917 4.2722 5.06226 2.90326 8.7063C2.68534 9.28641 2.1263 9.69101 1.50939 9.6323C0.760356 9.56102 0.23754 8.84763 0.483426 8.13652C2.1209 3.40092 6.61894 0 11.9113 0C13.6045 0 15.2164 0.348098 16.6793 0.976632C17.44 1.30346 17.5633 2.28528 16.9799 2.87278C16.5874 3.26806 15.9868 3.35476 15.4694 3.14862C14.3688 2.71022 13.1682 2.46917 11.9113 2.46917Z" fill="#54656F"/>
</g>
</svg>
